<?xml version="1.0" encoding="UTF-8"?>
<svg id="Capa_1" data-name="Capa 1" xmlns="http://www.w3.org/2000/svg" viewBox="0 0 81.77 81.82">
  <defs>
    <style>
      .cls-1 {
        fill: #8f8f95;
      }
    </style>
  </defs>
  <rect class="cls-1" x="14.36" y="5.36" width="3.99" height="48.17" rx="1.99" ry="1.99" transform="translate(32.71 58.89) rotate(180)"/>
  <rect class="cls-1" x="14.36" y="65.48" width="3.99" height="10.98" rx="1.99" ry="1.99" transform="translate(32.71 141.94) rotate(180)"/>
  <rect class="cls-1" x="39.7" y="44.39" width="3.99" height="32.07" rx="1.99" ry="1.99" transform="translate(83.39 120.85) rotate(-180)"/>
  <rect class="cls-1" x="39.7" y="5.36" width="3.99" height="26.94" rx="1.99" ry="1.99" transform="translate(83.39 37.65) rotate(-180)"/>
  <rect class="cls-1" x="65.05" y="27.8" width="3.99" height="48.66" rx="1.99" ry="1.99" transform="translate(134.08 104.26) rotate(-180)"/>
  <rect class="cls-1" x="65.05" y="5.36" width="3.99" height="11.51" rx="1.99" ry="1.99" transform="translate(134.08 22.23) rotate(180)"/>
  <path class="cls-1" d="M66.76,13.44c-4.72,0-8.54,3.82-8.54,8.54s3.82,8.54,8.54,8.54,8.54-3.82,8.54-8.54-3.82-8.54-8.54-8.54Zm0,13.66c-2.82,0-5.11-2.29-5.11-5.11s2.29-5.11,5.11-5.11,5.11,2.29,5.11,5.11-2.29,5.11-5.11,5.11Z"/>
  <path class="cls-1" d="M41.7,29.75c-4.72,0-8.54,3.82-8.54,8.54s3.82,8.54,8.54,8.54,8.54-3.82,8.54-8.54-3.82-8.54-8.54-8.54Zm0,13.66c-2.82,0-5.11-2.29-5.11-5.11s2.29-5.11,5.11-5.11,5.11,2.29,5.11,5.11-2.29,5.11-5.11,5.11Z"/>
  <path class="cls-1" d="M16.35,50.8c-4.72,0-8.54,3.82-8.54,8.54s3.82,8.54,8.54,8.54,8.54-3.82,8.54-8.54-3.82-8.54-8.54-8.54Zm0,13.66c-2.82,0-5.11-2.29-5.11-5.11s2.29-5.11,5.11-5.11,5.11,2.29,5.11,5.11-2.29,5.11-5.11,5.11Z"/>
</svg>