<?xml version="1.0" encoding="UTF-8"?>
<svg id="Capa_1" data-name="Capa 1" xmlns="http://www.w3.org/2000/svg" viewBox="0 0 81.77 81.82">
  <defs>
    <style>
      .cls-1 {
        fill: #8f8f95;
      }
    </style>
  </defs>
  <rect class="cls-1" x="57.69" y="4.62" width="3.99" height="43.1" rx="1.99" ry="1.99"/>
  <path class="cls-1" d="M56.91,4.86l-14.28,14.28c-.78,.78-.78,2.04,0,2.82h0c.78,.78,2.04,.78,2.82,0l12.87-12.87c.78-.78,2.04-.78,2.82,0l12.79,12.79c.78,.78,2.04,.78,2.82,0h0c.78-.78,.78-2.04,0-2.82L61.11,3.43c-.79-.79-2.07-.78-2.85,.03l-1.36,1.41"/>
  <rect class="cls-1" x="20.41" y="32.87" width="3.99" height="43.1" rx="1.99" ry="1.99" transform="translate(44.8 108.83) rotate(180)"/>
  <path class="cls-1" d="M25.18,75.72l14.28-14.28c.78-.78,.78-2.04,0-2.82h0c-.78-.78-2.04-.78-2.82,0l-12.87,12.87c-.78,.78-2.04,.78-2.82,0l-12.79-12.79c-.78-.78-2.04-.78-2.82,0h0c-.78,.78-.78,2.04,0,2.82l15.63,15.63c.79,.79,2.07,.78,2.85-.03l1.36-1.41"/>
</svg>